<?xml version="1.0" encoding="UTF-8"?>
<svg version="1.1" xmlns="http://www.w3.org/2000/svg" width="512" height="512">
<path d="M0 0 C0.67434082 0.19335938 1.34868164 0.38671875 2.04345703 0.5859375 C18.84892311 5.46603699 34.86873652 12.61825864 49 23 C50.40185547 24.01126953 50.40185547 24.01126953 51.83203125 25.04296875 C64.07113469 34.03797248 75.84853808 43.68982012 87 54 C88.00836654 54.91748948 89.0175243 55.83410989 90.02734375 56.75 C103.52533328 69.01122998 103.52533328 69.01122998 106 72 C106 72.66 106 73.32 106 74 C106.66 74 107.32 74 108 74 C108.20367187 73.47019531 108.40734375 72.94039063 108.6171875 72.39453125 C110.6006715 68.95985416 113.3012115 66.44690374 116.125 63.6875 C116.71611572 63.10427979 117.30723145 62.52105957 117.91625977 61.92016602 C122.14282512 57.77578227 126.47473082 53.81620412 131 50 C132.09473054 49.05451956 133.18837823 48.10778462 134.28125 47.16015625 C165.70529607 19.95464576 200.28684102 -3.07587252 243.1875 -3.25 C244.43853516 -3.270625 245.68957031 -3.29125 246.97851562 -3.3125 C258.11047087 -3.358859 267.9375834 -1.35630389 278.0625 3.25 C279.07799927 3.70669067 279.07799927 3.70669067 280.11401367 4.17260742 C302.82126075 14.63857668 316.11262924 32.18732878 325 55 C339.77553307 98.07682697 328.52830447 162.21794741 309.625 202.5625 C300.04126013 220.7673273 284.83900359 232.16505691 265.71484375 238.95703125 C225.19076428 250.33445419 182.09018258 235.31042312 146 217 C147.67226616 239.61739978 157.02104279 261.98191432 165 283 C165.35094727 283.92490234 165.70189453 284.84980469 166.06347656 285.80273438 C169.63573044 295.13831413 173.41902624 304.24256301 178.03125 313.12109375 C179.6117345 316.18204255 181.08063167 319.28562336 182.53125 322.41015625 C188.91756428 336.1404476 195.8286495 348.94020742 204.75 361.1875 C208.52907141 366.45665658 214 374.35194445 214 381 C208.76816535 380.40957352 204.57724355 378.72894419 199.875 376.5 C199.13088867 376.14905273 198.38677734 375.79810547 197.62011719 375.43652344 C190.73418246 372.07210849 184.91239534 367.88415268 179 363 C177.33423158 361.66554463 175.66783664 360.33186955 174 359 C174.2165625 359.6290625 174.433125 360.258125 174.65625 360.90625 C176.48060724 366.51445928 177.32723967 371.10968596 177 377 C171.5814234 377.22577402 167.22512279 376.46670113 162 375 C162 374.34 162 373.68 162 373 C161.44957031 372.92007812 160.89914062 372.84015625 160.33203125 372.7578125 C155.13571894 371.0692286 151.06103283 366.53385168 147 363 C146.35417969 362.44054687 145.70835937 361.88109375 145.04296875 361.3046875 C130.16602105 347.43811798 120.48397335 325.92675026 112.1875 307.75 C111.76090088 306.81551025 111.33430176 305.88102051 110.89477539 304.91821289 C108 298.40087102 108 298.40087102 108 295 C107.34 295 106.68 295 106 295 C105.81473755 296.08607544 105.81473755 296.08607544 105.62573242 297.1940918 C100.93925614 318.20918035 85.78142742 343.44529871 71 359 C70.41089844 359.64324219 69.82179687 360.28648437 69.21484375 360.94921875 C64.95474843 365.42280404 60.21535788 369.67470399 55 373 C54.01 373 53.02 373 52 373 C52 373.66 52 374.32 52 375 C46.77487721 376.46670113 42.4185766 377.22577402 37 377 C36.63482473 370.42684522 37.86380263 365.20514474 40 359 C39.40574219 359.49628906 38.81148437 359.99257813 38.19921875 360.50390625 C29.51907281 367.61811607 20.76610395 373.40440016 10.5 377.9375 C9.80503418 378.24437744 9.11006836 378.55125488 8.39404297 378.86743164 C5.43780178 380.127701 3.24650413 381 0 381 C2.70770932 371.44337887 7.48538427 363.37867433 13.3125 355.375 C23.03931015 341.71838486 30.00959562 326.17094446 37 311 C37.40307373 310.1339917 37.80614746 309.2679834 38.22143555 308.37573242 C51.26611946 280.09820759 64.41211618 248.09499314 68 217 C67.21689453 217.35191406 66.43378906 217.70382812 65.62695312 218.06640625 C48.71367745 225.62949391 31.85546506 232.90818676 14 238 C13.18547363 238.2357373 12.37094727 238.47147461 11.53173828 238.71435547 C0.49005622 241.77201707 -10.46307701 242.37482052 -21.875 242.4375 C-23.80001343 242.45296875 -23.80001343 242.45296875 -25.76391602 242.46875 C-48.04784389 242.26208512 -67.29289052 234.8991162 -83.5 219.58984375 C-113.59868459 188.40948768 -116.97759239 128.70455396 -116.45288086 87.76074219 C-115.68636082 61.37767654 -106.24846976 35.56505138 -87 16.9375 C-63.45552923 -3.05308839 -29.34111213 -8.79234234 0 0 Z " fill="#4B4BFB" transform="translate(149,72)"/>
<path d="M0 0 C0.67434082 0.19335938 1.34868164 0.38671875 2.04345703 0.5859375 C18.84892311 5.46603699 34.86873652 12.61825864 49 23 C50.40185547 24.01126953 50.40185547 24.01126953 51.83203125 25.04296875 C64.07113469 34.03797248 75.84853808 43.68982012 87 54 C88.00836654 54.91748948 89.0175243 55.83410989 90.02734375 56.75 C103.52533328 69.01122998 103.52533328 69.01122998 106 72 C106 72.66 106 73.32 106 74 C106.66 74 107.32 74 108 74 C108.20367187 73.47019531 108.40734375 72.94039063 108.6171875 72.39453125 C110.6006715 68.95985416 113.3012115 66.44690374 116.125 63.6875 C116.71611572 63.10427979 117.30723145 62.52105957 117.91625977 61.92016602 C122.14282512 57.77578227 126.47473082 53.81620412 131 50 C132.09473054 49.05451956 133.18837823 48.10778462 134.28125 47.16015625 C165.70529607 19.95464576 200.28684102 -3.07587252 243.1875 -3.25 C244.43853516 -3.270625 245.68957031 -3.29125 246.97851562 -3.3125 C258.11047087 -3.358859 267.9375834 -1.35630389 278.0625 3.25 C279.07799927 3.70669067 279.07799927 3.70669067 280.11401367 4.17260742 C302.82126075 14.63857668 316.11262924 32.18732878 325 55 C339.77553307 98.07682697 328.52830447 162.21794741 309.625 202.5625 C300.04126013 220.7673273 284.83900359 232.16505691 265.71484375 238.95703125 C225.19076428 250.33445419 182.09018258 235.31042312 146 217 C147.67226616 239.61739978 157.02104279 261.98191432 165 283 C165.35094727 283.92490234 165.70189453 284.84980469 166.06347656 285.80273438 C169.63573044 295.13831413 173.41902624 304.24256301 178.03125 313.12109375 C179.6117345 316.18204255 181.08063167 319.28562336 182.53125 322.41015625 C188.91756428 336.1404476 195.8286495 348.94020742 204.75 361.1875 C208.52907141 366.45665658 214 374.35194445 214 381 C208.76816535 380.40957352 204.57724355 378.72894419 199.875 376.5 C199.13088867 376.14905273 198.38677734 375.79810547 197.62011719 375.43652344 C190.73418246 372.07210849 184.91239534 367.88415268 179 363 C177.33423158 361.66554463 175.66783664 360.33186955 174 359 C174.2165625 359.6290625 174.433125 360.258125 174.65625 360.90625 C176.48060724 366.51445928 177.32723967 371.10968596 177 377 C171.5814234 377.22577402 167.22512279 376.46670113 162 375 C162 374.34 162 373.68 162 373 C161.44957031 372.92007812 160.89914062 372.84015625 160.33203125 372.7578125 C155.13571894 371.0692286 151.06103283 366.53385168 147 363 C146.35417969 362.44054687 145.70835937 361.88109375 145.04296875 361.3046875 C130.16602105 347.43811798 120.48397335 325.92675026 112.1875 307.75 C111.76090088 306.81551025 111.33430176 305.88102051 110.89477539 304.91821289 C108 298.40087102 108 298.40087102 108 295 C107.34 295 106.68 295 106 295 C105.81473755 296.08607544 105.81473755 296.08607544 105.62573242 297.1940918 C100.93925614 318.20918035 85.78142742 343.44529871 71 359 C70.41089844 359.64324219 69.82179687 360.28648437 69.21484375 360.94921875 C64.95474843 365.42280404 60.21535788 369.67470399 55 373 C54.01 373 53.02 373 52 373 C52 373.66 52 374.32 52 375 C46.77487721 376.46670113 42.4185766 377.22577402 37 377 C36.63482473 370.42684522 37.86380263 365.20514474 40 359 C39.40574219 359.49628906 38.81148437 359.99257813 38.19921875 360.50390625 C29.51907281 367.61811607 20.76610395 373.40440016 10.5 377.9375 C9.80503418 378.24437744 9.11006836 378.55125488 8.39404297 378.86743164 C5.43780178 380.127701 3.24650413 381 0 381 C2.70770932 371.44337887 7.48538427 363.37867433 13.3125 355.375 C23.03931015 341.71838486 30.00959562 326.17094446 37 311 C37.40307373 310.1339917 37.80614746 309.2679834 38.22143555 308.37573242 C51.26611946 280.09820759 64.41211618 248.09499314 68 217 C67.21689453 217.35191406 66.43378906 217.70382812 65.62695312 218.06640625 C48.71367745 225.62949391 31.85546506 232.90818676 14 238 C13.18547363 238.2357373 12.37094727 238.47147461 11.53173828 238.71435547 C0.49005622 241.77201707 -10.46307701 242.37482052 -21.875 242.4375 C-23.80001343 242.45296875 -23.80001343 242.45296875 -25.76391602 242.46875 C-48.04784389 242.26208512 -67.29289052 234.8991162 -83.5 219.58984375 C-113.59868459 188.40948768 -116.97759239 128.70455396 -116.45288086 87.76074219 C-115.68636082 61.37767654 -106.24846976 35.56505138 -87 16.9375 C-63.45552923 -3.05308839 -29.34111213 -8.79234234 0 0 Z M-75 44 C-82.45440302 53.00062198 -84.36994273 63.25430031 -85.6875 74.625 C-85.81415039 75.70458984 -85.94080078 76.78417969 -86.07128906 77.89648438 C-87.29858323 89.28286311 -87.33624156 100.56568539 -87 112 C-86.98453125 112.76715332 -86.9690625 113.53430664 -86.953125 114.32470703 C-86.37903175 140.63133417 -81.60132735 168.10185928 -62 187 C-46.88310525 200.42246275 -32.093866 204.78058176 -12 204 C-6.53363265 203.66951688 -1.08817599 203.13614925 4.35766602 202.56567383 C6.79765554 202.31403095 9.23915733 202.0872977 11.68164062 201.86132812 C26.98384477 200.34657694 40.93346075 196.59909815 54.75 189.75 C55.72517578 189.27401367 56.70035156 188.79802734 57.70507812 188.30761719 C71.02967077 181.66305153 81.76695501 173.89067332 90.59375 161.80078125 C92.47493691 159.3918169 94.41732543 157.63116288 97 156 C98.32 156 99.64 156 101 156 C100.63648438 157.55654297 100.63648438 157.55654297 100.265625 159.14453125 C97.92782583 169.70294244 96.4387599 180.22765676 95.3036499 190.96899414 C93.72700905 205.88223682 91.58709986 220.41402701 88 235 C87.67177246 236.36390869 87.67177246 236.36390869 87.33691406 237.75537109 C82.41448273 257.92019319 74.88563202 276.94005633 66.47216797 295.87597656 C60.31916101 309.47703871 60.31916101 309.47703871 58 324 C79.82270971 314.317538 96.11841759 282.62593597 105 262 C105.38398902 260.34427015 105.73439938 258.67879278 106 257 C106.66 257 107.32 257 108 257 C108.23674438 257.79724487 108.23674438 257.79724487 108.47827148 258.6105957 C110.42068688 264.81435718 113.02727573 270.44775183 116.0625 276.1875 C116.78832275 277.5628894 116.78832275 277.5628894 117.52880859 278.96606445 C123.92917286 290.85647725 131.6082453 301.27178056 141 311 C141.53657227 311.55703613 142.07314453 312.11407227 142.62597656 312.68798828 C144.38779604 314.50905738 146.1600526 316.31918777 147.9375 318.125 C148.50573486 318.70644775 149.07396973 319.28789551 149.65942383 319.88696289 C151.06759414 321.29768308 152.52969923 322.65415798 154 324 C154.66 324 155.32 324 156 324 C155.39593467 318.78739131 154.23765517 313.97921543 152.5625 309 C152.3051709 308.22946289 152.0478418 307.45892578 151.78271484 306.66503906 C149.55642986 300.21022085 146.89509133 293.98744519 144.125 287.75 C129.85877811 255.50940717 122.13529611 222.61696385 118.19775391 187.69433594 C116.9803171 176.97069771 115.54482996 166.50507557 113 156 C117.84927899 156.65644541 119.81547085 157.21441756 122.9375 161.0625 C123.618125 161.87589844 124.29875 162.68929687 125 163.52734375 C125.99 164.75130859 125.99 164.75130859 127 166 C144.82974988 187.69020912 173.18131686 198.63860979 200.5 201.625 C201.53769531 201.74617187 202.57539063 201.86734375 203.64453125 201.9921875 C237.8859214 206.06511737 237.8859214 206.06511737 269 193 C286.11591045 179.32523366 294.13115792 163.53412102 298 142 C298.29197266 140.42798828 298.29197266 140.42798828 298.58984375 138.82421875 C300.10897788 129.92009681 300.7131629 121.01412158 301 112 C301.02868164 111.10877441 301.05736328 110.21754883 301.08691406 109.29931641 C302.36065046 74.15006776 302.36065046 74.15006776 288.25390625 43.31640625 C280.70126704 35.5543351 273.28816245 31.36205028 263 28 C262.01 27.67 261.02 27.34 260 27 C224.18514868 23.78243281 187.69750028 48.21715805 160.86010742 70.09155273 C150.71582042 78.57153063 141.10713607 87.66537753 133.68359375 98.66015625 C132 101 132 101 129.9453125 103.046875 C127.46935011 105.53278101 125.96300318 108.25882388 124.24609375 111.29296875 C123 113 123 113 120 114 C113.67021277 114.34526112 113.67021277 114.34526112 110.9375 112.9375 C108.08025555 111.55496236 106.01318557 112.27945563 103 113 C102.01 113.495 102.01 113.495 101 114 C96.72630591 114.23742745 93.61539306 114.38139663 90 112 C88.47265625 109.79296875 88.47265625 109.79296875 87.0625 107.1875 C84.74429793 103.13498218 82.39394107 100.23232483 79 97 C77.82048293 95.5100837 76.65558869 94.00855092 75.5 92.5 C67.58052662 82.48859026 58.26859771 73.56934185 48 66 C47.4342627 65.57428711 46.86852539 65.14857422 46.28564453 64.70996094 C12.96482886 39.74320553 -39.0181001 6.43269071 -75 44 Z " fill="#FEFEFF" transform="translate(149,72)"/>
<path d="" fill="#FFFFFF" transform="translate(0,0)"/>
<path d="" fill="#FFFFFF" transform="translate(0,0)"/>
</svg>
